<?xml version="1.0" standalone="no"?>
<!DOCTYPE svg PUBLIC "-//W3C//DTD SVG 20010904//EN"
 "http://www.w3.org/TR/2001/REC-SVG-20010904/DTD/svg10.dtd">
<svg version="1.0" xmlns="http://www.w3.org/2000/svg"
 width="500.000000pt" height="500.000000pt" viewBox="0 0 500.000000 500.000000"
 preserveAspectRatio="xMidYMid meet">
<metadata>
Created by potrace 1.16, written by Peter Selinger 2001-2019
</metadata>
<g transform="translate(0.000000,500.000000) scale(0.100000,-0.100000)"
fill="#000000" stroke="none">
<path d="M1690 3718 c-167 -63 -403 -289 -562 -538 -106 -166 -306 -555 -433
-840 -43 -96 -84 -182 -91 -190 -12 -12 -14 -11 -14 13 0 49 31 220 61 341 38
150 93 327 229 741 113 343 128 409 98 429 -23 14 -49 -1 -59 -35 -4 -13 -20
-67 -35 -119 -15 -52 -56 -175 -91 -273 -76 -214 -179 -552 -227 -743 -42
-169 -63 -291 -76 -450 -11 -131 -6 -165 30 -184 37 -20 77 37 154 216 158
364 346 742 502 1004 160 271 374 483 555 550 107 40 149 0 157 -146 8 -152
-32 -340 -118 -563 -59 -151 -100 -204 -214 -278 -164 -106 -419 -322 -523
-443 -120 -139 -193 -268 -193 -340 0 -43 39 -84 82 -84 178 0 624 483 843
915 145 284 236 662 206 846 -29 170 -126 230 -281 171z m-130 -1189 c0 -25
-179 -259 -309 -404 -124 -139 -287 -263 -313 -237 -46 46 253 397 487 570
107 79 135 94 135 71z"/>
<path d="M3634 2964 c-22 -32 -122 -273 -160 -383 l-29 -84 -150 -143 c-175
-167 -251 -230 -339 -279 -122 -68 -214 -86 -257 -49 -24 21 -44 117 -33 156
8 27 16 34 46 39 151 24 358 241 358 374 0 168 -224 115 -360 -85 -40 -59
-245 -259 -358 -349 -158 -127 -325 -185 -383 -135 -24 21 -44 117 -33 156 8
27 16 34 46 39 151 24 358 241 358 374 0 137 -154 135 -290 -4 -69 -70 -136
-178 -172 -277 -33 -89 -32 -231 2 -299 14 -28 40 -60 60 -73 82 -55 256 1
445 143 50 37 113 90 142 116 28 27 53 49 55 49 2 0 2 -34 0 -75 -7 -130 43
-231 124 -251 123 -31 341 86 605 326 46 41 80 68 77 58 -11 -28 -76 -269 -93
-343 -81 -356 -150 -795 -143 -917 3 -51 4 -53 33 -53 38 0 39 4 115 243 122
386 312 785 497 1045 76 106 225 257 285 288 73 37 83 25 81 -93 -2 -136 -10
-150 -145 -251 -230 -172 -356 -345 -318 -438 12 -28 47 -49 81 -49 36 0 98
39 169 107 94 88 150 165 211 288 28 57 63 114 77 128 31 29 201 108 339 157
102 36 124 59 84 91 -27 22 -43 18 -241 -62 -82 -32 -154 -59 -160 -59 -8 0
-10 20 -5 73 8 89 -6 150 -45 189 -33 32 -65 35 -131 13 -176 -61 -417 -379
-650 -860 -49 -101 -89 -188 -89 -193 0 -12 -29 -36 -35 -30 -7 7 46 263 91
443 74 294 156 555 256 808 27 70 47 134 44 142 -9 24 -44 17 -62 -11z m-1386
-390 c4 -38 -44 -110 -106 -162 -75 -62 -141 -104 -153 -96 -41 25 108 235
196 275 50 23 59 20 63 -17z m730 0 c4 -38 -44 -110 -106 -162 -67 -56 -145
-103 -156 -92 -12 12 11 74 34 95 11 10 20 24 20 32 0 23 102 124 145 144 50
23 59 20 63 -17z m1064 -481 c-36 -68 -103 -150 -167 -202 -34 -28 -68 -51
-74 -51 -40 0 26 106 126 202 50 48 123 101 130 94 3 -2 -4 -21 -15 -43z"/>
</g>
</svg>
